# xmcd CD database file generated by OrangeCD 4.3
#
# Track frame offsets:
#	150
#	11853
#	32506
#	62203
#	73875
#	92876
#	115837
#	129935
#	133955
#	142717
#	149178
#	188545
#	190739
#	236760
#	280874
#	282326
#
# Disc length: 3890 seconds
#
# Revision: 0
# Processed by: cddbd v1.4PL0 Copyright (c) Steve Scherf et al.
# Submitted via: OrangeCD 4.3
#
DISCID=f70f3010
DTITLE=Son House - Revisited
DYEAR=2002
DGENRE=Blues
TTITLE0=Introduction by Dick Waterman
TTITLE1=Monologue by Son House
TTITLE2=Levee Camp Moan
TTITLE3=Monologue by Son House
TTITLE4=Death Letter
TTITLE5=Monologue by Son House
TTITLE6=Empire State Express
TTITLE7=Monologue by Son House
TTITLE8=Grinnin' In Your Face
TTITLE9=Monologue by Son House
TTITLE10=Preachin' The Blues
TTITLE11=Monologue by Son House
TTITLE12=Son's Blues
TTITLE13=Levee Camp Moan Version 2
TTITLE14=Monologue by Son House
TTITLE15=John The Revelator
EXTD=
EXTT0=
EXTT1=
EXTT2=
EXTT3=
EXTT4=
EXTT5=
EXTT6=
EXTT7=
EXTT8=
EXTT9=
EXTT10=
EXTT11=
EXTT12=
EXTT13=
EXTT14=
EXTT15=
PLAYORDER=
